<svg version="1.1" id="Layer_1" xmlns="http://www.w3.org/2000/svg" xmlns:xlink="http://www.w3.org/1999/xlink" x="0px" y="0px"
   viewBox="0 0 668.2 79.3" style="enable-background:new 0 0 668.2 79.3;" xml:space="preserve">
<g>
  <path style="fill:#002E6D;" d="M283.6,46.6c-7.3-1.5-10.2-2.2-10.2-4.3c0-1.9,1.7-3.9,6.3-3.9c3.8,0,7,1.6,8.5,4.4
    c0.4,0.6,1.2,0.8,1.8,0.5l9.3-5.1c0.3-0.2,0.6-0.5,0.7-0.9c0.1-0.4,0-0.8-0.2-1.1c-4.2-6.3-10.8-9.4-20.1-9.4l-0.5,0
    c-6.4,0-12,2.1-15.8,5.8c-2.9,2.8-4.5,6.4-4.5,10.2c0,10.9,9.2,14,18.2,15.7l0.8,0.1c5.5,1,9.8,1.8,9.8,4.2c0,2.1-2.1,4.3-6.7,4.3
    c-4.6,0-8-1.9-9.8-5.5c-0.2-0.4-0.5-0.6-0.9-0.7c-0.4-0.1-0.7-0.1-1.1,0.1l-10.3,5.7c-0.3,0.2-0.6,0.5-0.7,0.8
    c-0.1,0.4-0.1,0.7,0.1,1c4.1,7.3,11.3,10.9,21.9,10.9l0.4,0c8.3,0,13.3-3.2,16.1-5.9c3.1-3.1,5-7.2,5-11
    C301.9,51.7,293.1,48.5,283.6,46.6"/>
  <path style="fill:#002E6D;" d="M330.2,46.6c-7.3-1.5-10.2-2.2-10.2-4.3c0-1.9,1.7-3.9,6.3-3.9c3.8,0,7,1.6,8.5,4.4
    c0.4,0.6,1.2,0.8,1.8,0.5l9.3-5.1c0.3-0.2,0.6-0.5,0.7-0.9c0.1-0.4,0-0.8-0.2-1.1c-4.2-6.3-10.8-9.4-20.1-9.4l-0.5,0
    c-6.4,0-12,2.1-15.8,5.8c-2.9,2.8-4.5,6.4-4.5,10.2c0,10.9,9.2,14,18.2,15.7l0.8,0.1c5.5,1,9.8,1.8,9.8,4.2c0,2.1-2.1,4.3-6.7,4.3
    c-4.6,0-8-1.9-9.8-5.5c-0.2-0.4-0.5-0.6-0.9-0.7c-0.4-0.1-0.7-0.1-1.1,0.1l-10.2,5.7c-0.3,0.2-0.6,0.5-0.7,0.8
    c-0.1,0.4-0.1,0.7,0.1,1c4.1,7.3,11.3,10.9,21.9,10.9l0.4,0c8.3,0,13.3-3.2,16.1-5.9c3.1-3.1,5-7.2,5-11
    C348.5,51.7,339.7,48.5,330.2,46.6"/>
  <path style="fill:#002E6D;" d="M517.4,55.7V40.9c0-0.6,0.5-1,1-1h8.4c0.7,0,1.3-0.6,1.3-1.3V29c0-0.7-0.6-1.3-1.3-1.3h-8.4
    c-0.6,0-1-0.5-1-1V11.5c0-1-1.1-1.6-1.9-1.1l-11.8,6.5c-0.4,0.2-0.7,0.7-0.7,1.1v8.8c0,0.6-0.5,1-1,1h-5.2c-0.7,0-1.3,0.6-1.3,1.3
    v9.6c0,0.7,0.6,1.3,1.3,1.3h5.2c0.6,0,1,0.5,1,1l0,18c0,10.6,8.6,19.1,19.2,19.1c1.8,0,3.5,0.2,5.1-0.2c0.5-0.1,0.8-0.6,0.8-1.1V65
    c0-0.5-0.4-0.8-0.9-0.7c-0.7,0.2-1.4,0.3-2.2,0.3c-3.6,0-6.5-2.4-7.4-5.7C517.7,58.9,517.4,57.6,517.4,55.7"/>
  <path style="fill:#002E6D;" d="M548.6,53.4V29c0-0.7-0.6-1.3-1.3-1.3h-11.9c-0.7,0-1.3,0.6-1.3,1.3v25.8c0,7.2,2.1,13.3,6.1,17.7
    c4,4.4,9.6,6.7,16.1,6.7c5.4,0,10.1-1.3,14.5-4.8l0.3-0.2v2.6c0,0.7,0.6,1.3,1.3,1.3h11.9c0.7,0,1.3-0.6,1.3-1.3V29
    c0-0.7-0.6-1.3-1.3-1.3h-11.9c-0.7,0-1.3,0.6-1.3,1.3v24.1c0,8.1-4.2,12.9-11.4,12.9C552.6,66,548.6,61.4,548.6,53.4"/>
  <path style="fill:#002E6D;" d="M452.5,53.4V29c0-0.7-0.6-1.3-1.3-1.3h-11.9c-0.7,0-1.3,0.6-1.3,1.3v25.8c0,7.2,2.1,13.3,6.1,17.7
    c4,4.4,9.6,6.7,16.1,6.7c5.4,0,10.1-1.3,14.5-4.8l0.3-0.2V77c0,0.6,0.5,1,1,1h12.4c0.6,0,1-0.5,1-1V29c0-0.7-0.6-1.3-1.3-1.3h-11.9
    c-0.7,0-1.3,0.6-1.3,1.3v24.1c0,8.1-4.2,12.9-11.4,12.9C456.6,66,452.5,61.4,452.5,53.4"/>
  <path style="fill:#002E6D;" d="M667.2,0H655c-0.7,0-1.3,0.6-1.3,1.3V77c0,0.6,0.5,1,1,1h12.4c0.6,0,1-0.5,1-1V1
    C668.2,0.5,667.8,0,667.2,0"/>
  <path style="fill:#002E6D;" d="M225.2,39.1c7.5,0,12.7,5.6,12.7,13.6c0,8.1-5.4,14-12.7,14c-7.5,0-13-5.9-13-14
    C212.2,44.7,217.6,39.1,225.2,39.1 M198,52.7c0,16.1,10.8,26.9,26.9,26.4c4.8-0.1,9.4-2,13.1-5v2.6c0,0.7,0.6,1.3,1.3,1.3h11.9
    c0.7,0,1.3-0.6,1.3-1.3V29c0-0.7-0.6-1.3-1.3-1.3h-11.9c-0.7,0-1.3,0.6-1.3,1.3v2.6l-0.3-0.2c-4-3.1-8.7-4.7-13.8-4.7
    C208.4,26.7,198,37.2,198,52.7"/>
  <path style="fill:#002E6D;" d="M618.7,39.1c7.5,0,12.7,5.6,12.7,13.6c0,8.1-5.4,14-12.7,14c-7.5,0-13-5.9-13-14
    C605.8,44.7,611.1,39.1,618.7,39.1 M591.5,52.7c0,16.1,10.8,26.9,26.9,26.4c4.8-0.1,9.4-2,13.1-5V77c0,0.6,0.5,1,1,1h12.4
    c0.6,0,1-0.5,1-1V28.7c0-0.6-0.5-1-1-1h-12.4c-0.6,0-1,0.5-1,1v2.9l-0.3-0.2c-4-3.1-8.7-4.7-13.8-4.7
    C601.9,26.7,591.5,37.2,591.5,52.7"/>
  <path style="fill:#002E6D;" d="M180.3,0.7l-26.2,38.7L127.9,0.7c-0.3-0.4-0.7-0.7-1.2-0.7h-9c-0.8,0-1.5,0.7-1.5,1.5v75.1
    c0,0.8,0.7,1.5,1.5,1.5h11.5c0.8,0,1.5-0.7,1.5-1.5V30.7l22.2,32.8c0.6,0.9,1.9,0.9,2.5,0l22.2-32.8v45.9c0,0.8,0.7,1.5,1.5,1.5
    h11.5c0.8,0,1.5-0.7,1.5-1.5V1.5c0-0.8-0.7-1.5-1.5-1.5h-9C181,0,180.6,0.2,180.3,0.7"/>
  <path style="fill:#002E6D;" d="M418.3,0.7l-26.2,38.7L366,0.7c-0.3-0.4-0.7-0.7-1.2-0.7h-9c-0.8,0-1.5,0.7-1.5,1.5v75.1
    c0,0.8,0.7,1.5,1.5,1.5h11.5c0.8,0,1.5-0.7,1.5-1.5V30.7l22.2,32.8c0.6,0.9,1.9,0.9,2.5,0l22.2-32.8v45.9c0,0.8,0.7,1.5,1.5,1.5
    h11.5c0.8,0,1.5-0.7,1.5-1.5V1.5c0-0.8-0.7-1.5-1.5-1.5h-9C419.1,0,418.6,0.2,418.3,0.7"/>
  <path style="fill:#002E6D;" d="M97.5,67.5c0-6.5-5.3-11.8-11.8-11.8c-6.5,0-11.8,5.3-11.8,11.8c0,6.5,5.3,11.8,11.8,11.8
    C92.2,79.3,97.5,74,97.5,67.5"/>
  <path style="fill:#002E6D;" d="M60.5,67.5c0-6.5-5.3-11.8-11.8-11.8c-6.5,0-11.8,5.3-11.8,11.8c0,6.5,5.3,11.8,11.8,11.8
    C55.3,79.3,60.5,74,60.5,67.5"/>
  <path style="fill:#002E6D;" d="M23.6,67.5c0-6.5-5.3-11.8-11.8-11.8C5.3,55.7,0,60.9,0,67.5C0,74,5.3,79.3,11.8,79.3
    C18.3,79.3,23.6,74,23.6,67.5"/>
  <path style="fill:#002E6D;" d="M79,38.5c0-6.5-5.3-11.8-11.8-11.8c-6.5,0-11.8,5.3-11.8,11.8c0,6.5,5.3,11.8,11.8,11.8
    C73.7,50.3,79,45,79,38.5"/>
  <path style="fill:#002E6D;" d="M42.1,38.5c0-6.5-5.3-11.8-11.8-11.8S18.5,32,18.5,38.5c0,6.5,5.3,11.8,11.8,11.8S42.1,45,42.1,38.5
    "/>
</g>
</svg>